<svg width="13" height="11" viewBox="0 0 13 11" fill="none" xmlns="http://www.w3.org/2000/svg">
<path d="M12.1523 1.82001C11.7107 2.01201 11.2367 2.14401 10.7387 2.20161C11.2475 1.90161 11.6363 1.42641 11.8211 0.861206C11.3363 1.14377 10.8073 1.34255 10.2563 1.44921C10.0246 1.20629 9.74579 1.01313 9.43694 0.881508C9.1281 0.74988 8.79567 0.682544 8.45994 0.683606C7.10034 0.683606 5.99874 1.76961 5.99874 3.10761C5.99874 3.29721 6.02034 3.48201 6.06234 3.65961C5.08714 3.6133 4.13229 3.36422 3.25872 2.92826C2.38516 2.49231 1.61205 1.87904 0.988744 1.12761C0.769819 1.49613 0.654556 1.91696 0.655144 2.34561C0.655144 3.18561 1.09074 3.92961 1.75074 4.36281C1.36008 4.35056 0.977776 4.24655 0.634744 4.05921V4.08921C0.638451 4.65256 0.837303 5.19721 1.19744 5.63043C1.55758 6.06365 2.05675 6.35865 2.60994 6.46521C2.24677 6.56123 1.86677 6.57517 1.49754 6.50601C1.6585 6.99065 1.96635 7.41315 2.37837 7.71485C2.79039 8.01656 3.28612 8.18249 3.79674 8.18961C2.9207 8.86468 1.84511 9.2294 0.739144 9.22641C0.541144 9.22641 0.345544 9.21441 0.152344 9.19281C1.28091 9.90715 2.5895 10.2855 3.92514 10.2836C8.45394 10.2836 10.9295 6.59001 10.9295 3.38601L10.9211 3.07161C11.4039 2.73234 11.8211 2.30827 12.1523 1.82001Z" fill="#22333B"/>
</svg>
