<svg width="15" height="15" viewBox="0 0 15 15" fill="none" xmlns="http://www.w3.org/2000/svg">
<path d="M7.12843 0.986328C5.50002 0.99738 3.92605 1.57196 2.67578 2.61178C1.42552 3.65161 0.576655 5.09205 0.274403 6.6867C-0.0278499 8.28135 0.235292 9.93112 1.01881 11.3538C1.80234 12.7764 3.05755 13.8836 4.56972 14.4858C4.46809 13.823 4.46809 13.1487 4.56972 12.4859L5.39754 8.98602C5.26653 8.66906 5.20167 8.32882 5.20689 7.98606C5.20689 7.0161 5.77382 6.28613 6.47621 6.28613C6.60346 6.28422 6.72961 6.30974 6.84603 6.36095C6.96246 6.41216 7.0664 6.48784 7.15073 6.58281C7.23507 6.67778 7.29782 6.78979 7.33467 6.91118C7.37152 7.03256 7.3816 7.16046 7.36424 7.28609C7.36424 7.88607 6.98294 8.78603 6.78226 9.616C6.73906 9.77078 6.73393 9.93365 6.76728 10.0908C6.80064 10.248 6.87151 10.3949 6.97389 10.519C7.07626 10.6431 7.20714 10.7408 7.35543 10.8038C7.50373 10.8668 7.66507 10.8933 7.82581 10.881C9.07004 10.881 10.0333 9.566 10.0333 7.67607C10.0458 7.29203 9.97788 6.9096 9.83381 6.55319C9.68973 6.19678 9.47268 5.87421 9.19653 5.60606C8.92037 5.33791 8.59116 5.13006 8.22989 4.99579C7.86863 4.86151 7.48325 4.80374 7.09833 4.82618C6.68738 4.80859 6.27712 4.87428 5.89239 5.01928C5.50765 5.16428 5.15644 5.38558 4.86001 5.66977C4.56359 5.95395 4.3281 6.29513 4.16783 6.67264C4.00755 7.05016 3.9258 7.45616 3.92754 7.86607C3.92196 8.43711 4.09755 8.99532 4.42924 9.46101C4.45336 9.48772 4.47055 9.51992 4.47929 9.55478C4.48804 9.58965 4.48808 9.62611 4.47942 9.661C4.42423 9.88099 4.30382 10.361 4.28375 10.456C4.26368 10.551 4.17839 10.611 4.04795 10.551C3.16996 10.141 2.6231 8.86603 2.6231 7.83607C2.6231 5.63115 4.23358 3.60123 7.2639 3.60123C9.69718 3.60123 11.5936 5.33116 11.5936 7.64607C11.5936 10.056 10.0885 11.9959 7.94622 11.9959C7.63216 12.0068 7.32034 11.9393 7.03909 11.7996C6.75784 11.6599 6.51607 11.4524 6.33574 11.1959L5.89925 12.8609C5.69001 13.5079 5.39652 14.1248 5.02628 14.6958C5.70849 14.8967 6.4171 14.9945 7.12843 14.9858C8.99129 14.9858 10.7778 14.2483 12.0951 12.9356C13.4123 11.6229 14.1523 9.84251 14.1523 7.98606C14.1523 6.12962 13.4123 4.34921 12.0951 3.0365C10.7778 1.7238 8.99129 0.986328 7.12843 0.986328Z" fill="#EAE0D5"/>
</svg>
