<svg width="50" height="73" viewBox="0 0 50 73" fill="none" xmlns="http://www.w3.org/2000/svg">
<path d="M5.17223 56.7801L5.8165 56.367L5.17223 56.7801ZM11.1267 1.25935C10.9723 0.865861 10.5283 0.67199 10.1348 0.826322L3.72257 3.34131C3.32908 3.49564 3.13521 3.93973 3.28954 4.33322C3.44388 4.7267 3.88797 4.92057 4.28145 4.76624L9.98119 2.5307L12.2167 8.23043C12.3711 8.62392 12.8152 8.81779 13.2086 8.66346C13.6021 8.50912 13.796 8.06503 13.6417 7.67155L11.1267 1.25935ZM10.4142 1.53879C9.71283 1.23259 9.71282 1.23261 9.71281 1.23263C9.7128 1.23264 9.71279 1.23267 9.71279 1.23268C9.71277 1.23272 9.71275 1.23277 9.71273 1.23282C9.71268 1.23293 9.71262 1.23307 9.71254 1.23324C9.7124 1.23358 9.71219 1.23405 9.71193 1.23464C9.71142 1.23582 9.71069 1.2375 9.70974 1.23968C9.70785 1.24404 9.70509 1.25038 9.7015 1.25869C9.6943 1.27531 9.68373 1.2998 9.66993 1.33196C9.64233 1.3963 9.60178 1.49136 9.54939 1.61572C9.44462 1.86443 9.29246 2.23035 9.10171 2.70193L10.5206 3.27586C10.7085 2.81143 10.8579 2.45229 10.96 2.20995C11.011 2.08878 11.0502 1.99683 11.0765 1.93552C11.0897 1.90486 11.0996 1.88187 11.1062 1.86672C11.1094 1.85915 11.1119 1.85353 11.1135 1.8499C11.1142 1.84809 11.1148 1.84677 11.1152 1.84595C11.1154 1.84554 11.1155 1.84525 11.1156 1.84509C11.1156 1.84501 11.1156 1.84496 11.1156 1.84494C11.1156 1.84493 11.1156 1.84493 11.1156 1.84494C11.1156 1.84494 11.1156 1.84495 11.1156 1.84495C11.1156 1.84497 11.1156 1.84498 10.4142 1.53879ZM7.9423 5.68571C7.60758 6.58001 7.2401 7.59031 6.85329 8.69904L8.29848 9.20324C8.68125 8.1061 9.04481 7.10659 9.3758 6.22225L7.9423 5.68571ZM5.83456 11.7248C5.5194 12.6958 5.1995 13.7164 4.88098 14.7784L6.34707 15.2181C6.6621 14.1677 6.97857 13.1581 7.29042 12.1973L5.83456 11.7248ZM3.99715 17.8559C3.72118 18.862 3.45076 19.8952 3.1902 20.9497L4.67613 21.3169C4.93339 20.2757 5.20051 19.2551 5.47325 18.2607L3.99715 17.8559ZM2.46475 24.0687C2.23957 25.103 2.02695 26.1518 1.83057 27.2104L3.33551 27.4896C3.52883 26.4475 3.7383 25.4142 3.96033 24.3943L2.46475 24.0687ZM1.2996 30.3721C1.14125 31.4296 1.00217 32.4923 0.885922 33.5555L2.40747 33.7219C2.52137 32.6802 2.65778 31.6376 2.81334 30.5987L1.2996 30.3721ZM0.608157 36.7594C0.540236 37.8379 0.499652 38.9127 0.49024 39.9787L2.0208 39.9922C2.02995 38.9558 2.06943 37.9087 2.13575 36.8556L0.608157 36.7594ZM0.56255 43.204C0.623344 44.2962 0.722632 45.3742 0.864973 46.4323L2.38192 46.2282C2.24534 45.2129 2.14957 44.1748 2.0908 43.1189L0.56255 43.204ZM1.44566 49.6265C1.69687 50.7037 2.00256 51.7525 2.36853 52.7655L3.80808 52.2454C3.46422 51.2936 3.17506 50.3028 2.93628 49.2789L1.44566 49.6265ZM3.69496 55.7689C3.95424 56.2558 4.23163 56.7309 4.52796 57.1931L5.8165 56.367C5.54316 55.9407 5.28653 55.5012 5.04599 55.0495L3.69496 55.7689ZM4.52796 57.1931C4.81326 57.6381 5.11532 58.0699 5.43296 58.4888L6.65262 57.564C6.35866 57.1763 6.07964 56.7775 5.8165 56.367L4.52796 57.1931ZM7.51424 60.8489C8.2561 61.5785 9.04951 62.2606 9.88545 62.8983L10.8138 61.6813C10.0249 61.0795 9.28043 60.4391 8.5875 59.7576L7.51424 60.8489ZM12.4647 64.6526C13.3434 65.1866 14.2542 65.6825 15.1893 66.1432L15.8658 64.7702C14.9677 64.3277 14.0967 63.8532 13.2595 63.3446L12.4647 64.6526ZM18.0185 67.4056C18.9699 67.7898 19.9381 68.1433 20.9161 68.4688L21.3993 67.0164C20.4492 66.7003 19.5111 66.3576 18.5915 65.9863L18.0185 67.4056ZM23.8653 69.3611C24.8591 69.6337 25.8564 69.8805 26.8505 70.1041L27.1863 68.6108C26.2137 68.3921 25.2395 68.1509 24.2701 67.885L23.8653 69.3611ZM29.8611 70.7156C30.883 70.9019 31.8942 71.0656 32.8869 71.2093L33.1062 69.6945C32.1307 69.5533 31.138 69.3926 30.1356 69.2098L29.8611 70.7156ZM35.9326 71.5979C36.986 71.7148 38.0068 71.8103 38.9845 71.8882L39.1061 70.3624C38.143 70.2857 37.138 70.1916 36.1013 70.0766L35.9326 71.5979ZM42.0426 72.0862C43.1597 72.142 44.1867 72.1754 45.1012 72.1939L45.1321 70.6636C44.2316 70.6454 43.2197 70.6125 42.119 70.5575L42.0426 72.0862ZM48.1591 72.2061C48.6499 72.1994 49.0336 72.1893 49.2955 72.1809C49.4265 72.1767 49.527 72.1729 49.5953 72.1701C49.6295 72.1687 49.6555 72.1676 49.6733 72.1668C49.6822 72.1664 49.6891 72.1661 49.6938 72.1658C49.6961 72.1657 49.698 72.1656 49.6993 72.1656C49.6999 72.1656 49.7005 72.1655 49.7009 72.1655C49.7011 72.1655 49.7012 72.1655 49.7013 72.1655C49.7014 72.1655 49.7015 72.1655 49.7015 72.1655C49.7015 72.1655 49.7016 72.1655 49.7016 72.1655C49.7016 72.1655 49.7016 72.1655 49.6645 71.4011C49.6273 70.6367 49.6273 70.6367 49.6274 70.6367C49.6274 70.6367 49.6274 70.6367 49.6274 70.6367C49.6274 70.6367 49.6274 70.6367 49.6274 70.6367C49.6274 70.6367 49.6274 70.6367 49.6273 70.6367C49.6272 70.6367 49.6269 70.6367 49.6265 70.6367C49.6257 70.6367 49.6243 70.6368 49.6225 70.6369C49.6187 70.6371 49.6129 70.6373 49.6051 70.6377C49.5893 70.6384 49.5653 70.6394 49.5332 70.6407C49.4691 70.6433 49.3729 70.647 49.2463 70.651C48.9933 70.6592 48.619 70.669 48.1381 70.6756L48.1591 72.2061Z" fill="white"/>
</svg>
